<svg width="22" height="19" viewBox="0 0 22 19" fill="none" xmlns="http://www.w3.org/2000/svg">
  <path d="M15.5625 0C17.2029 0.00198478 18.7756 0.654502 19.9355 1.81445C21.0955 2.9744 21.748 4.54708 21.75 6.1875C21.75 12.9694 11.8301 18.3884 11.4082 18.6162C11.2443 18.7044 11.0611 18.75 10.875 18.75C10.6889 18.75 10.5057 18.7044 10.3418 18.6162C10.1561 18.5159 8.13064 17.4099 5.9209 15.625H5.875V15.5869C3.0761 13.3167 0 9.96377 0 6.1875C0.00198478 4.54708 0.654502 2.9744 1.81445 1.81445C2.9744 0.654502 4.54708 0.00198478 6.1875 0C8.07094 0 9.7425 0.743672 10.875 2.02148C12.0075 0.743672 13.6791 0 15.5625 0Z" fill="black"/>
</svg>
