<svg width="565" height="560" viewBox="0 0 565 560" fill="none" xmlns="http://www.w3.org/2000/svg">
<path d="M116.094 10.8807C120.665 10.5602 125.482 10.9029 130.049 10.978C135.159 11.0621 140.306 11.0233 145.421 11.0176L214.756 11.0157L419.336 10.9004L440.846 11.0373C445.956 11.0687 456.102 11.0665 461.118 11.8507C477.229 14.3703 493.459 21.4591 506.574 31.1234C510.572 34.0685 517.251 40.6873 520.774 44.3124C533.467 57.3675 543.379 76.8478 546.342 94.8293C547.261 100.406 547.068 106.261 547.084 111.933L547.126 134.326L547.584 204.87L547.664 365.848L547.636 418.753C547.606 430.552 547.534 442.13 546.988 453.931C546.886 456.149 546.185 457.87 545.978 459.661C545.327 465.308 543.661 469.835 541.738 475.128C540.968 477.25 539.376 479.926 538.441 482.077C537.677 483.52 537.031 485.752 536.32 487.126C535.211 489.261 533.503 489.208 533.955 492.108C534.135 493.255 531.395 495.388 530.648 496.538C528.057 500.519 524.981 504.353 521.991 508.055C519.568 510.869 515.56 514.243 512.867 517.101C509.604 520.568 504.155 523.694 500.113 526.177C497.906 527.534 495.917 529.512 493.448 530.866C486.559 534.651 478.644 537.145 471.193 539.597C469.543 540.141 466.401 540.428 464.577 540.941C463.223 541.321 461.766 542.149 460.566 542.246C455.421 542.659 449.52 542.726 444.372 542.665C431.908 542.292 418.539 542.668 406.072 542.786L364.436 542.803L193.189 542.745L135.433 542.692L116.972 542.668C71.8836 542.339 32.0089 510.679 19.9302 467.708C15.3353 451.36 16.3106 439.744 16.2818 422.999L16.2485 375.366L16.2702 203.052L16.2503 132.427L16.2537 112.412C16.2673 107.707 16.1276 101.459 16.9847 96.9377C21.7871 71.6075 34.203 49.4533 54.5369 33.4194C74.0012 18.0714 91.6291 11.877 116.094 10.8807Z" fill="#11110F"/>
<path d="M149.947 130.882C176.513 120.74 186.004 133.475 203.399 150.602L221.504 168.383L264.094 210.38C270.801 216.999 278.011 224.445 284.787 230.861C288.812 225.692 298.661 216.408 303.621 211.518C314.651 200.524 325.749 189.596 336.909 178.735L366.185 149.806C370.891 145.155 377.78 137.751 382.842 133.951C387.414 130.467 392.846 128.29 398.559 127.65C416.847 125.471 434.241 137.758 436.509 156.554C437.351 163.516 435.679 169.732 432.705 176.001C431.08 182.027 426.558 187.311 421.846 191.239C420.326 192.909 412.091 201.111 410.543 202.121L358.918 253.212C354.391 257.604 349.845 261.782 345.028 265.831C342.004 268.37 335.102 274.475 333.308 277.697L334.412 276.83C333.038 278.579 330.757 280.902 329.75 282.254C325.874 286.816 321.004 290.703 317.048 295.258C312.524 300.466 306.032 304.317 300.951 308.847C296.266 313.026 295.141 317.719 288.668 320.527L284.671 324.494C281.896 321.374 277.156 316.952 274.099 313.903L251.244 291.175L174.622 215.332L153.141 194.253C141.32 182.717 129.242 172.832 133.024 154.212C134.136 148.734 135.705 145.754 138.512 141.039C141.113 136.217 145.092 133.199 149.947 130.882Z" fill="#FEFEFE"/>
<path d="M418.169 192.086C423.532 186.736 428.355 182.299 432.705 176.001C431.08 182.027 426.559 187.311 421.847 191.24C420.327 192.909 412.092 201.112 410.544 202.121L358.919 253.212C354.392 257.605 349.845 261.782 345.028 265.831C342.005 268.371 335.102 274.475 333.309 277.697L334.412 276.83C333.039 278.579 330.757 280.902 329.75 282.254C325.874 286.817 321.005 290.704 317.049 295.258C312.524 300.466 306.033 304.317 300.951 308.847C296.267 313.026 295.141 317.719 288.669 320.527C292.711 315.97 299.191 309.796 303.663 305.338C310.734 298.29 318.274 290.513 325.548 283.807C328.015 280.93 332.393 276.858 335.16 274.155C340.807 268.661 346.413 263.127 351.983 257.555L385.216 224.517C395.045 214.723 404.406 205.102 414.627 195.696C414.892 195.32 417.67 192.588 418.169 192.086Z" fill="#11110F"/>
<path d="M138.512 141.039C141.113 136.217 145.092 133.198 149.947 130.882C148.924 134.133 142.652 137.807 140.161 140.379C140.053 140.49 138.771 140.949 138.512 141.039Z" fill="#11110F"/>
<path d="M432.829 201.672C434.073 200.557 435.387 199.314 436.722 198.329L436.852 339.73L436.976 379.164C436.978 387.142 437.232 395.882 436.17 403.711C434.81 413.738 428.263 422.466 419.435 427.209C418.644 427.639 417.082 428.329 416.398 428.803C411.719 432.737 403.903 433.385 398.104 432.329C396.159 432.006 394.328 431.722 392.449 431.106C389.45 430.13 388.609 429.471 386.843 427.049C384.195 425.807 380.873 423.164 378.831 421.084C374.575 416.82 371.697 411.371 370.572 405.451C369.407 399.266 369.614 391.153 369.606 384.72L369.601 358.397L369.675 264.429C377.827 256.435 386.004 247.823 394.123 239.753C401.911 232.014 411.388 223.717 418.757 215.684C421.54 211.691 428.928 205.243 432.829 201.672Z" fill="#FEFEFE"/>
<path d="M386.843 427.048C392.829 429.258 396.076 430.303 402.378 431.147C407.376 430.943 411.553 430.005 416.398 428.802C411.719 432.736 403.903 433.384 398.104 432.328C396.159 432.005 394.327 431.721 392.449 431.106C389.45 430.129 388.608 429.47 386.843 427.048Z" fill="#11110F"/>
<path d="M432.829 201.672C432.474 204.596 430.443 206.381 428.357 208.362C425.254 211.314 422.958 214.613 418.757 215.684C421.54 211.691 428.928 205.243 432.829 201.672Z" fill="#11110F"/>
<path d="M132.389 198.245C136.706 202.702 141.291 207.056 145.676 211.45L177.734 243.205L190.98 256.191C193.475 258.646 197.539 262.379 199.435 265.108C199.701 270.669 199.368 277.799 199.33 283.501L199.182 321.297C199.301 338.541 199.321 355.788 199.241 373.035C199.222 382.922 199.915 399.435 197.615 408.461C196.128 423.085 183.654 429.507 170.681 432.202C167.098 432.883 167.695 432.194 164.898 432.21C159.023 432.243 153.634 431.611 148.408 428.635C145.91 427.214 142.957 424.778 142.211 421.868C137.4 416.996 134.195 410.767 133.024 404.022C132.122 398.577 132.405 387.142 132.398 381.228L132.38 341.752L132.389 198.245Z" fill="#FEFEFE"/>
<path d="M163.107 431.01C168.555 430.996 173.949 429.931 178.994 427.876C188.396 424.033 193.816 417.562 197.615 408.461C196.128 423.084 183.654 429.506 170.681 432.202C169.994 431.948 169.586 431.501 168.655 431.357C167.216 431.137 164.317 431.495 163.107 431.01Z" fill="#11110F"/>
<path d="M142.212 421.867C149.084 426.722 154.427 430.121 163.108 431.009C164.317 431.495 167.216 431.136 168.655 431.357C169.587 431.5 169.995 431.947 170.682 432.201C167.099 432.882 167.695 432.193 164.898 432.209C159.023 432.242 153.634 431.611 148.408 428.634C145.911 427.213 142.957 424.778 142.212 421.867Z" fill="#11110F"/>
</svg>
